# xmcd
#
# Track frame offsets:
#   150
#   23670
#   43690
#   65458
#   81826
#   97425
#   114542
#   133618
#   150805
#   168384
#   186243
#   201187
#
# Disc length: 2941 seconds
#
# Revision: 0
# Processed by: cddbd v1.5.2PL0 Copyright (c) Steve Scherf et al.
# Submitted via: uFREEDB ActiveX Control 1.5
#
DISCID=9e0b7b0c
DTITLE=EDUARDO LAGES - NOSSAS CANÇÕES
DYEAR=2008
DGENRE=INSTRUMENTAL
TTITLE0=ALEM DO HORIZONTE
TTITLE1=OUTRA VEZ
TTITLE2=O PORTÃO
TTITLE3=NÃO SE ESQUEÇA DE MIM
TTITLE4=NOSSA CANÇÃO
TTITLE5=NEGRO GATO
TTITLE6=NÃO QUERO VER VOCE TRISTE
TTITLE7=CANZONE PER TE
TTITLE8=O TEMPO VAI APAGAR
TTITLE9=FALANDO SÉRIO
TTITLE10=CUSTE O QUE CUSTAR
TTITLE11=CONFISSÃO
EXTD=
EXTT0=
EXTT1=
EXTT2=
EXTT3=
EXTT4=
EXTT5=
EXTT6=
EXTT7=
EXTT8=
EXTT9=
EXTT10=
EXTT11=
PLAYORDER=
